/* SVG Coffee Beans - Ngaduman Cascara & Coffee Dummy Image */
<svg viewBox="0 0 200 200" xmlns="http://www.w3.org/2000/svg" style="width: 100%; height: 100%; display: block;">
  <!-- Background -->
  <rect width="200" height="200" fill="#F8F8F8"/>
  
  <!-- Coffee Bean 1 -->
  <ellipse cx="60" cy="80" rx="35" ry="50" fill="#6B4423" opacity="0.9"/>
  <path d="M 60 30 Q 80 40 85 80 Q 80 120 60 130 Q 40 120 35 80 Q 40 40 60 30 Z" 
        fill="#8B6F47"/>
  <line x1="60" y1="30" x2="60" y2="130" stroke="#4a2a0a" stroke-width="2" opacity="0.5"/>
  
  <!-- Coffee Bean 2 -->
  <ellipse cx="140" cy="100" rx="35" ry="50" fill="#6B4423" opacity="0.9"/>
  <path d="M 140 50 Q 160 60 165 100 Q 160 140 140 150 Q 120 140 115 100 Q 120 60 140 50 Z" 
        fill="#8B6F47"/>
  <line x1="140" y1="50" x2="140" y2="150" stroke="#4a2a0a" stroke-width="2" opacity="0.5"/>
  
  <!-- Coffee Bean 3 (small) -->
  <ellipse cx="100" cy="140" rx="25" ry="35" fill="#6B4423" opacity="0.85"/>
  <path d="M 100 105 Q 115 115 118 140 Q 115 165 100 175 Q 85 165 82 140 Q 85 115 100 105 Z" 
        fill="#8B6F47"/>
  <line x1="100" y1="105" x2="100" y2="175" stroke="#4a2a0a" stroke-width="1.5" opacity="0.5"/>
  
  <!-- Text -->
  <text x="100" y="190" font-family="Arial" font-size="12" font-weight="bold" 
        text-anchor="middle" fill="#B89B72">Premium Beans</text>
</svg>
